# xmcd
#
# Track frame offsets:
#	150
#	11625
#	42975
#	52200
#	65625
#	83662
#	100050
#	112125
#	130050
#	142950
#	159450
#	172950
#	186450
#	204225
#	216112
#	226200
#	243750
#
# Disc length: 3430 seconds
#
# Revision: 1
# Processed by: cddbd v1.5.1PL0 Copyright (c) Steve Scherf et al.
# Submitted via: audiograbber 1.83.01
#
DISCID=e90d6411
DTITLE=Trevor Day - Wisdom, Wit And Wiles
DYEAR=1995
DGENRE=Country
TTITLE0=Dr Day's Green Pills
TTITLE1=The Flying Doctor
TTITLE2=A Little More Time Lord
TTITLE3=Changing The Flag
TTITLE4=Ordinary People
TTITLE5=Another Lazy Lady
TTITLE6=Picking A Plot
TTITLE7=Tumba-Bicody-Rumba
TTITLE8=Australia's Not Australia Anymore
TTITLE9=I'll Tell You Why, Son
TTITLE10=Hero Of My Childhood Dreams
TTITLE11=You Can't Take It With You
TTITLE12=The Veil
TTITLE13=Thankyou
TTITLE14=It's Always Been That Way
TTITLE15=Sam Holt
TTITLE16=The Old Riders Dream
EXTD=
EXTT0=
EXTT1=
EXTT2=
EXTT3=
EXTT4=
EXTT5=
EXTT6=
EXTT7=
EXTT8=
EXTT9=
EXTT10=
EXTT11=
EXTT12=
EXTT13=
EXTT14=
EXTT15=
EXTT16=
PLAYORDER=
